<?xml version="1.0" standalone="no"?>
<!DOCTYPE svg PUBLIC "-//W3C//DTD SVG 20010904//EN"
 "http://www.w3.org/TR/2001/REC-SVG-20010904/DTD/svg10.dtd">
<svg version="1.0" xmlns="http://www.w3.org/2000/svg"
 width="1152.000000pt" height="2112.000000pt" viewBox="0 0 1152.000000 2112.000000"
 preserveAspectRatio="xMidYMid meet">

<g transform="translate(0.000000,2112.000000) scale(0.100000,-0.100000)"
fill="#000000" stroke="none">
<path d="M5660 11190 l0 -180 215 0 215 0 0 180 0 180 -215 0 -215 0 0 -180z"/>
<path d="M9600 11085 l0 -275 -180 0 -180 0 0 -215 0 -215 180 0 180 0 0 -585
0 -585 215 0 215 0 2 583 3 582 178 3 177 2 0 215 0 215 -180 0 -180 0 0 275
0 275 -215 0 -215 0 0 -275z"/>
<path d="M5385 10824 c-11 -2 -45 -9 -75 -15 -114 -23 -208 -89 -258 -184
l-27 -50 -3 118 -3 117 -214 0 -215 0 0 -800 0 -800 215 0 215 0 0 365 c0 228
4 384 11 417 35 168 204 336 384 383 33 8 79 15 102 15 l43 0 0 220 0 220 -77
-1 c-43 -1 -87 -3 -98 -5z"/>
<path d="M1695 10793 c-283 -60 -516 -283 -597 -570 -28 -100 -30 -292 -4
-398 39 -161 152 -334 287 -437 136 -104 271 -156 434 -165 181 -10 315 29
415 123 l50 47 0 -92 0 -91 215 0 215 0 0 800 0 800 -215 0 -215 0 0 -86 0
-87 -49 46 c-94 88 -210 127 -371 126 -52 0 -126 -7 -165 -16z m332 -418 c130
-59 222 -192 231 -332 8 -119 -26 -210 -109 -298 -152 -161 -400 -163 -557 -6
-216 216 -115 580 183 658 75 19 183 10 252 -22z"/>
<path d="M3615 10801 c-126 -16 -232 -63 -297 -133 l-28 -30 0 81 0 81 -215 0
-215 0 0 -1090 0 -1090 215 0 215 0 0 381 0 381 28 -30 c84 -90 212 -135 382
-134 143 0 236 23 364 89 112 59 250 189 314 298 132 224 144 523 30 750 -153
306 -473 485 -793 446z m195 -417 c100 -30 191 -111 239 -213 23 -50 26 -68
26 -166 0 -98 -3 -116 -25 -159 -59 -116 -178 -206 -300 -225 -169 -27 -345
68 -418 227 -37 82 -43 213 -12 295 41 110 138 205 243 239 67 22 178 22 247
2z"/>
<path d="M6885 10799 c-165 -24 -303 -90 -423 -204 -123 -115 -197 -236 -238
-386 -25 -89 -26 -309 -1 -399 40 -150 134 -297 260 -407 248 -217 617 -250
914 -81 40 23 83 52 95 65 l22 24 -141 141 -141 141 -35 -22 c-119 -73 -288
-71 -410 6 -196 123 -243 398 -98 578 84 103 197 151 338 143 63 -4 92 -11
143 -36 l63 -32 138 135 c76 75 140 139 141 143 3 12 -94 80 -168 117 -128 64
-320 95 -459 74z"/>
<path d="M8264 10800 c-185 -20 -346 -101 -480 -242 -157 -165 -216 -312 -217
-543 0 -160 16 -235 80 -365 40 -81 62 -110 143 -191 149 -150 283 -216 484
-238 274 -31 529 76 705 295 111 137 159 267 168 455 9 182 -31 336 -121 472
-173 260 -453 392 -762 357z m211 -415 c125 -38 237 -159 265 -286 49 -222
-105 -448 -325 -478 -125 -17 -239 21 -331 110 -206 201 -126 557 146 652 58
20 181 21 245 2z"/>
<path d="M5662 10008 l3 -793 213 -3 212 -2 0 795 0 795 -215 0 -215 0 2 -792z"/>
<path d="M4163 8700 c-323 -36 -605 -288 -679 -608 -21 -89 -20 -266 1 -362
25 -114 101 -261 181 -348 165 -181 359 -265 609 -264 212 1 364 57 498 182
74 70 184 206 174 216 -15 15 -392 125 -402 118 -7 -5 -31 -23 -55 -41 -172
-131 -421 -88 -555 95 -67 91 -114 84 547 76 l581 -7 -6 139 c-4 85 -14 169
-26 215 -47 185 -175 360 -345 473 -141 94 -336 137 -523 116z m217 -416 c64
-19 122 -57 173 -113 32 -35 67 -91 67 -106 0 -3 -162 -5 -360 -5 -198 0 -360
4 -360 9 0 28 86 130 146 171 83 58 225 76 334 44z"/>
<path d="M5792 8700 c-263 -36 -486 -198 -610 -445 -113 -227 -102 -525 30
-750 63 -108 201 -239 314 -298 130 -67 221 -89 369 -89 181 0 324 44 466 144
l60 42 -143 143 -144 143 -55 -30 c-189 -102 -436 -17 -539 186 -22 43 -25 61
-25 159 0 98 3 116 26 166 31 65 85 128 144 169 104 71 269 80 390 21 l67 -33
139 138 c77 76 139 141 139 144 0 10 -106 83 -162 111 -129 65 -323 98 -466
79z"/>
<path d="M7160 8699 c-263 -32 -494 -199 -616 -444 -54 -109 -74 -206 -74
-353 0 -312 160 -566 448 -711 145 -73 381 -96 543 -53 274 73 500 299 570
571 25 96 28 274 5 379 -38 182 -160 362 -322 478 -152 109 -355 158 -554 133z
m223 -418 c273 -90 359 -430 161 -641 -115 -123 -309 -159 -456 -84 -70 36
-153 121 -185 191 -34 74 -43 193 -20 271 28 94 113 198 197 242 82 43 210 52
303 21z"/>
<path d="M10275 6384 c-56 -15 -185 -29 -410 -44 -165 -11 -239 -27 -331 -71
-148 -73 -278 -228 -325 -389 -12 -42 -75 -140 -90 -140 -14 0 -33 34 -56 101
-45 135 -138 244 -255 299 -67 32 -99 40 -291 71 -71 11 -162 31 -203 45 -41
13 -77 24 -79 24 -3 0 7 -24 21 -52 94 -188 253 -348 439 -441 70 -35 201 -74
273 -83 l62 -7 19 -61 c10 -33 22 -76 26 -95 l7 -33 -38 6 c-109 17 -243 18
-316 2 -276 -62 -500 -303 -562 -608 -125 -608 492 -1246 1071 -1107 140 33
331 157 423 274 25 31 70 74 100 96 348 251 498 687 369 1074 -54 160 -137
278 -256 358 -100 69 -194 99 -318 100 -127 2 -218 -20 -319 -78 -42 -24 -76
-38 -76 -32 0 20 48 115 75 151 l26 34 132 -1 c213 -1 355 48 557 191 129 92
321 298 375 403 17 33 18 32 -50 13z m-135 -123 c0 -5 -42 -49 -94 -99 -146
-139 -309 -239 -451 -277 -67 -18 -225 -32 -225 -20 0 22 261 191 404 261 71
35 121 64 111 64 -37 0 -233 -73 -325 -121 -52 -27 -128 -74 -168 -104 -40
-30 -75 -55 -78 -55 -14 0 54 107 101 159 124 134 229 174 498 190 192 12 227
12 227 2z m-1535 -156 c154 -24 258 -81 316 -174 32 -50 30 -65 -4 -34 -52 49
-221 131 -307 148 -26 6 -15 -3 43 -34 98 -52 182 -109 250 -168 l51 -46 -44
7 c-59 9 -160 51 -245 100 -67 39 -245 202 -245 223 0 7 15 8 43 2 23 -4 87
-15 142 -24z m1066 -503 c294 -77 476 -442 401 -804 -32 -156 -104 -301 -202
-410 l-39 -43 29 90 c102 323 39 655 -165 861 -141 142 -298 187 -513 148 -44
-9 -35 12 26 58 139 107 302 142 463 100z m-692 -197 c29 -16 60 -39 69 -50
11 -14 38 -25 77 -33 95 -19 162 -58 242 -138 111 -112 182 -284 184 -448 1
-61 2 -67 10 -41 15 44 3 198 -21 285 -43 154 -141 280 -265 341 -79 39 -72
47 43 48 181 2 333 -102 427 -294 57 -114 70 -180 70 -345 -1 -173 -18 -249
-95 -405 -254 -519 -820 -607 -1221 -189 -107 113 -172 219 -224 369 -37 104
-46 299 -21 410 25 108 94 239 166 318 131 142 270 209 425 204 66 -3 89 -8
134 -32z"/>
<path d="M2710 5276 l0 -206 40 0 c22 0 40 5 40 10 0 7 6 7 19 0 37 -19 97
-12 130 16 86 72 38 214 -72 214 -23 0 -49 -5 -57 -10 -13 -8 -16 4 -20 83
l-5 92 -37 3 -38 3 0 -205z m170 -46 c37 -37 14 -100 -36 -100 -49 0 -72 64
-37 102 21 24 48 23 73 -2z"/>
<path d="M3040 5276 l0 -206 40 0 40 0 -2 203 -3 202 -37 3 -38 3 0 -205z"/>
<path d="M5150 5276 l0 -206 40 0 40 0 -2 203 -3 202 -37 3 -38 3 0 -205z"/>
<path d="M5630 5276 l0 -206 40 0 c22 0 40 5 40 10 0 7 6 7 19 0 37 -19 97
-12 130 16 86 72 38 214 -72 214 -23 0 -49 -5 -57 -10 -13 -8 -16 4 -20 83
l-5 92 -37 3 -38 3 0 -205z m170 -46 c37 -37 14 -100 -36 -100 -49 0 -72 64
-37 102 21 24 48 23 73 -2z"/>
<path d="M5960 5275 l0 -205 40 0 40 0 0 205 0 205 -40 0 -40 0 0 -205z"/>
<path d="M1190 5255 l0 -185 40 0 39 0 3 62 3 63 40 -63 c40 -62 40 -62 88
-62 55 0 55 1 -12 85 l-40 49 29 17 c38 23 50 48 50 101 0 82 -51 118 -170
118 l-70 0 0 -185z m158 98 c27 -37 6 -79 -45 -89 l-33 -6 0 62 0 63 33 -7
c17 -3 38 -14 45 -23z"/>
<path d="M6610 5420 c-28 -28 -35 -67 -18 -103 14 -30 14 -32 -19 -63 -36 -34
-44 -80 -21 -129 24 -54 115 -72 175 -35 32 19 32 19 47 -1 11 -16 23 -20 56
-17 l42 3 -31 39 c-36 45 -37 53 -14 78 16 18 15 20 -5 40 -21 22 -22 22 -43
2 -21 -19 -21 -19 -45 9 l-24 29 25 30 c34 41 34 90 -1 117 -35 28 -97 28
-124 1z m87 -56 c7 -19 -20 -49 -36 -40 -6 4 -11 18 -11 32 0 17 5 24 20 24
11 0 23 -7 27 -16z m-13 -166 l26 -33 -22 -18 c-27 -22 -56 -19 -75 9 -12 18
-11 24 8 47 26 34 32 34 63 -5z"/>
<path d="M1545 5300 c-88 -36 -98 -172 -15 -215 76 -39 200 1 200 64 0 21 -71
12 -89 -11 -23 -27 -63 -19 -79 17 l-12 25 95 0 c89 0 95 1 95 20 0 34 -28 79
-60 95 -31 16 -102 19 -135 5z m103 -52 c22 -22 13 -28 -38 -28 -27 0 -50 4
-50 8 0 16 25 32 50 32 14 0 31 -5 38 -12z"/>
<path d="M1790 5216 c0 -79 3 -97 21 -120 16 -20 29 -26 61 -26 25 0 49 7 60
17 17 15 18 15 18 0 0 -13 9 -17 40 -17 l40 0 0 120 0 120 -40 0 -40 0 0 -74
c0 -81 -15 -110 -54 -104 -19 3 -21 10 -24 91 l-3 87 -39 0 -40 0 0 -94z"/>
<path d="M2125 5298 c-27 -15 -35 -28 -35 -60 0 -28 31 -58 60 -58 8 0 32 -5
53 -11 59 -16 42 -60 -18 -45 -14 4 -25 13 -25 21 0 11 -11 15 -40 15 -49 0
-53 -19 -11 -61 26 -26 36 -29 94 -29 50 0 70 5 91 21 53 41 24 112 -51 124
-61 11 -73 16 -73 31 0 17 51 19 67 3 6 -6 28 -9 49 -7 l39 3 -32 33 c-28 29
-37 32 -90 32 -32 0 -67 -6 -78 -12z"/>
<path d="M2412 5294 c-29 -20 -52 -66 -52 -104 0 -38 23 -84 52 -104 26 -19
90 -21 121 -5 16 9 22 9 25 0 2 -6 21 -11 43 -11 l39 0 0 120 0 120 -40 0
c-30 0 -40 -4 -40 -16 0 -14 -2 -14 -22 0 -29 20 -97 20 -126 0z m128 -64 c11
-11 20 -29 20 -40 0 -26 -34 -60 -60 -60 -26 0 -60 34 -60 60 0 26 34 60 60
60 11 0 29 -9 40 -20z"/>
<path d="M3232 5290 c-41 -25 -66 -81 -57 -126 3 -20 20 -45 41 -63 29 -26 43
-31 87 -31 64 0 95 15 120 58 l19 32 -40 0 c-26 0 -45 -6 -57 -20 -23 -25 -47
-26 -68 -2 -33 36 -22 42 73 42 l90 0 0 30 c0 19 -11 42 -29 62 -24 27 -36 32
-87 35 -47 3 -66 0 -92 -17z m116 -42 c22 -22 13 -28 -38 -28 -27 0 -50 4 -50
8 0 16 25 32 50 32 14 0 31 -5 38 -12z"/>
<path d="M3760 5190 l0 -120 40 0 40 0 0 60 c0 32 5 71 12 85 12 26 48 42 67
30 7 -4 11 7 11 29 0 32 -3 36 -27 36 -14 0 -35 -7 -45 -17 -17 -15 -18 -15
-18 0 0 13 -9 17 -40 17 l-40 0 0 -120z"/>
<path d="M4018 5294 c-77 -41 -75 -169 2 -209 37 -19 112 -19 149 -1 22 12 51
52 51 71 0 15 -73 2 -90 -15 -11 -11 -27 -20 -35 -20 -17 0 -55 35 -55 50 0 6
38 10 95 10 80 0 95 2 95 16 0 31 -33 85 -61 99 -36 19 -116 19 -151 -1z m122
-49 c18 -22 9 -27 -51 -23 -50 3 -52 4 -35 21 22 21 69 22 86 2z"/>
<path d="M4328 5294 c-57 -30 -74 -112 -38 -172 25 -41 61 -55 128 -50 55 5
95 31 105 69 4 16 0 19 -33 19 -25 0 -42 -6 -48 -16 -6 -10 -20 -14 -43 -12
-28 2 -35 8 -43 35 -17 63 54 115 86 63 9 -14 24 -20 50 -20 42 0 42 -1 28 34
-21 57 -128 85 -192 50z"/>
<path d="M4550 5302 c0 -18 82 -227 90 -230 4 -2 -3 -30 -16 -62 -13 -33 -24
-62 -24 -65 0 -3 18 -5 39 -5 l39 0 28 73 c15 39 46 122 70 182 l42 110 -30 3
c-16 2 -35 1 -42 -1 -6 -3 -23 -39 -36 -81 -13 -42 -26 -76 -30 -76 -3 0 -17
35 -31 78 -25 76 -25 77 -62 80 -20 2 -37 -1 -37 -6z"/>
<path d="M4893 5290 c-41 -25 -53 -48 -53 -105 0 -40 5 -52 34 -81 30 -30 40
-34 85 -34 74 0 131 35 131 79 0 17 -66 13 -80 -4 -18 -22 -67 -19 -80 4 -15
29 -12 67 6 85 22 22 61 20 74 -4 14 -25 80 -29 80 -4 0 71 -121 111 -197 64z"/>
<path d="M5339 5295 c-28 -15 -59 -70 -59 -104 0 -34 26 -87 51 -105 28 -19
109 -21 128 -3 11 10 14 10 18 0 3 -8 22 -13 44 -13 l39 0 0 120 0 120 -40 0
c-30 0 -40 -4 -40 -16 0 -14 -2 -14 -22 0 -28 20 -84 20 -119 1z m121 -65 c37
-37 14 -100 -36 -100 -49 0 -72 64 -37 102 21 24 48 23 73 -2z"/>
<path d="M6152 5290 c-41 -25 -66 -81 -57 -126 3 -20 20 -45 41 -63 29 -26 43
-31 87 -31 64 0 95 15 120 58 l19 32 -40 0 c-26 0 -45 -6 -57 -20 -23 -25 -47
-26 -68 -2 -33 36 -22 42 73 42 l90 0 0 30 c0 19 -11 42 -29 62 -24 27 -36 32
-87 35 -47 3 -66 0 -92 -17z m116 -42 c22 -22 13 -28 -38 -28 -27 0 -50 4 -50
8 0 16 25 32 50 32 14 0 31 -5 38 -12z"/>
<path d="M3496 5128 c-8 -27 -26 -107 -26 -117 0 -6 9 -11 20 -11 15 0 27 17
50 66 16 37 30 68 30 70 0 11 -71 2 -74 -8z"/>
<path d="M1190 4696 l0 -206 40 0 c22 0 40 5 40 10 0 7 6 7 19 0 37 -19 97
-12 130 16 86 72 38 214 -72 214 -23 0 -49 -5 -57 -10 -13 -8 -16 4 -20 83
l-5 92 -37 3 -38 3 0 -205z m170 -46 c37 -37 14 -100 -36 -100 -49 0 -72 64
-37 102 21 24 48 23 73 -2z"/>
<path d="M2170 4800 l0 -101 -22 15 c-29 20 -97 20 -126 0 -67 -47 -67 -161 0
-208 26 -19 90 -21 121 -5 16 9 22 9 25 0 2 -6 21 -11 43 -11 l39 0 -2 203 -3
202 -37 3 -38 3 0 -101z m-20 -150 c11 -11 20 -29 20 -40 0 -11 -9 -29 -20
-40 -11 -11 -29 -20 -40 -20 -11 0 -29 9 -40 20 -11 11 -20 29 -20 40 0 11 9
29 20 40 11 11 29 20 40 20 11 0 29 -9 40 -20z"/>
<path d="M3690 4804 c0 -88 -2 -95 -17 -88 -10 4 -39 9 -66 12 -43 4 -50 1
-82 -31 -31 -31 -35 -41 -35 -87 0 -46 4 -56 34 -86 28 -28 42 -34 76 -34 23
0 51 5 63 11 16 9 22 9 25 0 2 -6 19 -11 38 -11 l34 0 0 205 0 205 -35 0 -35
0 0 -96z m-28 -151 c22 -20 24 -66 2 -87 -22 -23 -60 -20 -78 6 -21 30 -20 54
4 78 24 24 47 25 72 3z"/>
<path d="M4170 4696 l0 -206 40 0 c22 0 40 5 40 10 0 7 6 7 19 0 37 -19 97
-12 130 16 86 72 38 214 -72 214 -23 0 -49 -5 -57 -10 -13 -8 -16 4 -20 83
l-5 92 -37 3 -38 3 0 -205z m170 -46 c37 -37 14 -100 -36 -100 -49 0 -72 64
-37 102 21 24 48 23 73 -2z"/>
<path d="M4500 4696 l0 -206 40 0 40 0 -2 203 -3 202 -37 3 -38 3 0 -205z"/>
<path d="M6260 4800 l0 -101 -22 15 c-29 20 -97 20 -126 0 -29 -20 -52 -66
-52 -104 0 -38 23 -84 52 -104 26 -19 90 -21 121 -5 16 9 22 9 25 0 2 -6 21
-11 43 -11 l39 0 -2 203 -3 202 -37 3 -38 3 0 -101z m-20 -150 c11 -11 20 -29
20 -40 0 -26 -34 -60 -60 -60 -26 0 -60 34 -60 60 0 26 34 60 60 60 11 0 29
-9 40 -20z"/>
<path d="M1536 4847 c-12 -9 -17 -23 -14 -42 2 -25 8 -31 33 -33 19 -3 33 2
42 14 17 24 17 30 -7 54 -24 24 -30 24 -54 7z"/>
<path d="M5250 4688 c-18 -95 -35 -179 -37 -185 -4 -9 8 -13 40 -13 l45 0 12
73 c7 39 17 97 24 127 l12 55 34 -127 35 -128 40 0 40 0 34 127 c39 142 36
144 66 -29 l17 -98 45 0 c32 0 44 4 40 13 -2 6 -19 90 -37 185 l-33 172 -47 0
c-47 0 -47 0 -59 -42 -51 -174 -64 -210 -71 -197 -4 8 -22 65 -40 127 l-33
112 -47 0 -47 0 -33 -172z"/>
<path d="M1520 4610 l0 -120 40 0 40 0 0 120 0 120 -40 0 -40 0 0 -120z"/>
<path d="M1722 4713 c-58 -28 -79 -102 -47 -163 20 -39 63 -60 124 -60 42 0
56 5 85 31 115 100 -21 262 -162 192z m117 -75 c23 -41 6 -82 -37 -86 -43 -4
-62 12 -62 54 0 64 69 87 99 32z"/>
<path d="M2375 4720 c-88 -36 -98 -172 -15 -215 76 -39 200 1 200 64 0 21 -71
12 -89 -11 -23 -27 -63 -19 -79 17 l-12 25 95 0 c89 0 95 1 95 20 0 34 -28 79
-60 95 -31 16 -102 19 -135 5z m103 -52 c22 -22 13 -28 -38 -28 -27 0 -50 4
-50 8 0 16 25 32 50 32 14 0 31 -5 38 -12z"/>
<path d="M2661 4705 c-45 -38 -57 -86 -36 -141 11 -29 27 -50 45 -59 34 -17
93 -20 121 -5 17 9 19 7 19 -17 0 -34 -8 -46 -38 -62 -19 -10 -28 -10 -48 4
-13 8 -24 20 -24 25 0 6 -18 10 -40 10 -49 0 -52 -16 -11 -62 24 -27 36 -32
89 -36 71 -5 101 9 132 61 17 28 20 51 20 170 l0 137 -39 0 c-22 0 -41 -5 -44
-12 -4 -10 -7 -10 -18 0 -23 22 -94 15 -128 -13z m131 -52 c36 -32 12 -103
-35 -103 -49 0 -75 64 -40 102 20 22 51 23 75 1z"/>
<path d="M2960 4610 l0 -120 40 0 40 0 0 73 c0 81 19 115 60 104 17 -4 20 0
20 29 0 28 -4 34 -21 34 -11 0 -29 -5 -40 -10 -13 -7 -19 -7 -19 0 0 5 -18 10
-40 10 l-40 0 0 -120z"/>
<path d="M3201 4705 c-45 -38 -57 -86 -36 -141 11 -29 27 -50 45 -59 34 -17
93 -20 121 -5 13 7 19 7 19 0 0 -5 18 -10 40 -10 l40 0 0 120 0 120 -39 0
c-22 0 -41 -5 -44 -12 -4 -10 -7 -10 -18 0 -23 22 -94 15 -128 -13z m131 -52
c36 -32 12 -103 -35 -103 -49 0 -75 64 -40 102 20 22 51 23 75 1z"/>
<path d="M3872 4714 c-29 -20 -52 -66 -52 -104 0 -38 23 -84 52 -104 26 -19
90 -21 121 -5 16 9 22 9 25 0 2 -6 21 -11 43 -11 l39 0 0 120 0 120 -40 0
c-30 0 -40 -4 -40 -16 0 -14 -2 -14 -22 0 -29 20 -97 20 -126 0z m128 -64 c11
-11 20 -29 20 -40 0 -11 -9 -29 -20 -40 -11 -11 -29 -20 -40 -20 -11 0 -29 9
-40 20 -11 11 -20 29 -20 40 0 11 9 29 20 40 11 11 29 20 40 20 11 0 29 -9 40
-20z"/>
<path d="M4692 4710 c-41 -25 -66 -81 -57 -126 3 -20 20 -45 41 -63 29 -26 43
-31 87 -31 64 0 95 15 120 58 l19 32 -40 0 c-26 0 -45 -6 -57 -20 -23 -25 -47
-26 -68 -2 -33 36 -22 42 73 42 l90 0 0 30 c0 19 -11 42 -29 62 -24 27 -36 32
-87 35 -47 3 -66 0 -92 -17z m116 -42 c22 -22 13 -28 -38 -28 -27 0 -50 4 -50
8 0 16 25 32 50 32 14 0 31 -5 38 -12z"/>
<path d="M5771 4705 c-45 -38 -57 -86 -36 -141 11 -29 27 -50 45 -59 34 -17
93 -20 121 -5 13 7 19 7 19 0 0 -5 18 -10 40 -10 l40 0 0 120 0 120 -39 0
c-22 0 -41 -5 -44 -12 -4 -10 -7 -10 -18 0 -23 22 -94 15 -128 -13z m131 -52
c36 -32 12 -103 -35 -103 -49 0 -75 64 -40 102 20 22 51 23 75 1z"/>
<path d="M6465 4720 c-88 -36 -98 -172 -15 -215 76 -39 200 1 200 64 0 21 -71
12 -89 -11 -23 -27 -63 -19 -79 17 l-12 25 95 0 c89 0 95 1 95 20 0 34 -28 79
-60 95 -31 16 -102 19 -135 5z m103 -52 c22 -22 13 -28 -38 -28 -27 0 -50 4
-50 8 0 16 25 32 50 32 14 0 31 -5 38 -12z"/>
<path d="M4965 4560 c-15 -17 -16 -24 -7 -46 10 -21 18 -25 45 -22 27 3 32 7
35 33 3 19 -2 33 -14 42 -25 18 -38 16 -59 -7z"/>
<path d="M1264 4303 c-37 -7 -55 -38 -61 -102 -4 -42 -10 -61 -19 -61 -9 0
-14 -11 -14 -30 0 -20 5 -30 15 -30 12 0 15 -17 15 -90 l0 -90 40 0 39 0 3 88
c3 87 3 87 31 90 23 3 27 8 27 33 0 26 -3 29 -31 29 -30 0 -30 1 -27 48 3 43
5 47 31 50 24 3 27 8 27 38 0 31 -3 34 -27 33 -16 -1 -38 -4 -49 -6z"/>
<path d="M5050 4106 l0 -206 40 0 40 0 0 74 c0 75 13 106 44 106 27 0 36 -26
36 -102 l0 -78 41 0 41 0 -4 101 c-3 92 -5 103 -27 120 -29 24 -93 25 -112 2
-12 -14 -15 -3 -19 83 l-5 99 -37 3 -38 3 0 -205z"/>
<path d="M4040 4185 c0 -38 -3 -45 -20 -45 -16 0 -20 -7 -20 -30 0 -23 4 -30
20 -30 19 0 20 -7 20 -90 l0 -90 40 0 40 0 0 90 c0 83 1 90 20 90 16 0 20 7
20 30 0 23 -4 30 -20 30 -17 0 -20 7 -20 45 l0 45 -40 0 -40 0 0 -45z"/>
<path d="M1380 4020 l0 -120 40 0 40 0 0 60 c0 32 5 71 12 85 12 26 48 42 67
30 7 -4 11 7 11 29 0 32 -3 36 -27 36 -14 0 -35 -7 -45 -17 -17 -15 -18 -15
-18 0 0 13 -9 17 -40 17 l-40 0 0 -120z"/>
<path d="M1633 4120 c-41 -24 -53 -48 -53 -103 0 -80 58 -124 152 -115 71 7
108 47 108 116 0 27 -7 57 -16 70 -36 52 -132 69 -191 32z m127 -72 c13 -25
13 -31 0 -55 -11 -20 -25 -29 -47 -31 -55 -5 -79 58 -40 106 18 22 70 10 87
-20z"/>
<path d="M1900 4020 l0 -120 40 0 40 0 0 73 c0 59 4 77 18 90 42 38 62 8 62
-92 l0 -71 40 0 40 0 0 71 c0 78 11 109 40 109 29 0 40 -31 40 -109 l0 -71 41
0 41 0 -4 89 c-4 113 -23 144 -87 149 -27 2 -52 -3 -67 -13 -22 -14 -27 -14
-46 0 -27 18 -79 20 -97 3 -11 -10 -14 -10 -18 0 -3 7 -22 12 -44 12 l-39 0 0
-120z"/>
<path d="M2538 4123 c-30 -19 -58 -68 -58 -102 0 -39 28 -89 59 -105 16 -9 53
-16 82 -16 45 0 55 4 85 34 19 19 34 39 34 45 0 17 -77 14 -84 -4 -7 -20 -60
-19 -76 0 -16 19 -15 71 1 91 17 20 57 17 71 -6 9 -14 24 -20 50 -20 47 0 49
17 9 62 -24 27 -36 32 -87 35 -44 3 -66 -1 -86 -14z"/>
<path d="M2860 4134 c-31 -13 -70 -59 -76 -90 -15 -81 42 -144 130 -144 90 0
143 54 133 133 -8 62 -52 99 -119 103 -29 2 -60 1 -68 -2z m94 -70 c18 -18 21
-56 6 -85 -7 -13 -21 -19 -45 -19 -37 0 -55 20 -55 61 0 49 60 77 94 43z"/>
<path d="M3100 4020 l0 -120 40 0 40 0 0 60 c0 32 5 71 12 85 12 26 48 42 67
30 7 -4 11 7 11 29 0 32 -3 36 -27 36 -14 0 -35 -7 -45 -17 -17 -15 -18 -15
-18 0 0 13 -9 17 -40 17 l-40 0 0 -120z"/>
<path d="M3310 4020 l0 -120 40 0 40 0 0 74 c0 75 13 106 44 106 27 0 36 -26
36 -102 l0 -78 41 0 41 0 -4 101 c-3 92 -5 103 -27 120 -29 23 -88 25 -113 2
-17 -15 -18 -15 -18 0 0 13 -9 17 -40 17 l-40 0 0 -120z"/>
<path d="M3768 4125 c-22 -12 -28 -23 -28 -50 0 -41 24 -61 87 -71 68 -11 86
-54 23 -54 -19 0 -33 7 -40 20 -13 24 -80 29 -80 6 0 -50 45 -76 130 -76 51 0
65 4 85 25 14 13 25 33 25 43 0 33 -38 71 -78 78 -60 10 -72 15 -72 30 0 9 11
14 30 14 17 0 30 -4 30 -10 0 -5 18 -10 40 -10 45 0 52 16 19 46 -27 25 -133
30 -171 9z"/>
<path d="M4234 4106 c-30 -30 -34 -40 -34 -86 0 -46 4 -56 34 -86 28 -28 42
-34 76 -34 23 0 51 5 63 11 16 9 22 9 25 0 2 -6 19 -11 38 -11 l34 0 0 120 0
120 -34 0 c-19 0 -36 -5 -38 -11 -3 -9 -9 -9 -25 0 -12 6 -40 11 -63 11 -34 0
-48 -6 -76 -34z m138 -43 c22 -20 24 -66 2 -87 -22 -23 -60 -20 -78 6 -21 30
-20 54 4 78 24 24 47 25 72 3z"/>
<path d="M4540 4020 l0 -120 40 0 40 0 0 60 c0 32 5 71 12 85 12 26 48 42 67
30 7 -4 11 7 11 29 0 32 -3 36 -27 36 -14 0 -35 -7 -45 -17 -17 -15 -18 -15
-18 0 0 13 -9 17 -40 17 l-40 0 0 -120z"/>
<path d="M4793 4120 c-41 -25 -53 -48 -53 -105 0 -40 5 -52 34 -81 30 -30 40
-34 85 -34 74 0 131 35 131 79 0 17 -66 13 -80 -4 -18 -22 -67 -19 -80 4 -15
29 -12 67 6 85 22 22 61 20 74 -4 14 -25 80 -29 80 -4 0 71 -121 111 -197 64z"/>
<path d="M5368 3979 c-36 -21 -16 -79 27 -79 42 0 59 44 29 74 -18 18 -32 20
-56 5z"/>
<path d="M8950 2183 c0 -10 5 -25 10 -33 7 -11 10 -7 10 18 0 17 -4 32 -10 32
-5 0 -10 -8 -10 -17z"/>
<path d="M1160 2163 c0 -16 7 -50 25 -130 3 -14 13 -23 25 -23 14 0 23 13 36
55 10 30 21 52 24 48 4 -5 13 -29 20 -55 10 -39 17 -48 35 -48 19 0 23 8 35
73 7 39 15 78 17 85 3 7 -3 12 -15 12 -17 0 -22 -8 -27 -37 -12 -76 -20 -80
-35 -19 -10 42 -18 56 -31 56 -14 0 -23 -15 -36 -57 l-17 -58 -11 55 c-7 39
-16 56 -28 58 -11 2 -17 -3 -17 -15z"/>
<path d="M1418 2098 c-29 -70 -32 -84 -19 -87 8 -2 22 6 29 18 19 28 68 29 77
1 3 -11 15 -20 26 -20 18 0 18 1 -1 50 -41 104 -49 120 -63 120 -8 0 -29 -35
-49 -82z m66 -20 c-3 -5 -12 -8 -20 -8 -15 0 -18 18 -7 45 5 15 8 14 19 -6 7
-13 10 -27 8 -31z"/>
<path d="M1570 2095 c0 -69 3 -85 15 -85 9 0 15 9 15 25 0 14 4 25 8 25 5 0
15 -11 22 -25 9 -16 22 -25 37 -25 l24 0 -21 31 c-20 28 -21 31 -6 48 38 42 8
91 -55 91 l-39 0 0 -85z m75 30 c0 -13 -8 -21 -22 -23 -19 -3 -23 1 -23 23 0
22 4 26 23 23 14 -2 22 -10 22 -23z"/>
<path d="M1710 2095 c0 -68 3 -85 14 -85 11 0 16 15 18 53 l3 52 30 -52 c18
-32 37 -53 48 -53 15 0 17 11 17 85 0 78 -2 85 -19 85 -17 0 -20 -8 -23 -47
l-3 -48 -25 48 c-15 29 -32 47 -42 47 -16 0 -18 -11 -18 -85z"/>
<path d="M1870 2095 c0 -78 2 -85 20 -85 18 0 20 7 20 85 0 78 -2 85 -20 85
-18 0 -20 -7 -20 -85z"/>
<path d="M1940 2095 c0 -68 3 -85 14 -85 11 0 16 15 18 53 l3 52 30 -52 c18
-32 37 -53 48 -53 15 0 17 11 17 85 0 78 -2 85 -19 85 -17 0 -20 -8 -23 -47
l-3 -48 -25 48 c-15 29 -32 47 -42 47 -16 0 -18 -11 -18 -85z"/>
<path d="M2129 2151 c-17 -18 -29 -40 -29 -56 0 -38 50 -85 90 -85 36 0 80 38
80 70 0 17 -6 20 -40 20 -29 0 -40 -4 -40 -15 0 -9 9 -15 21 -15 18 0 19 -2 9
-15 -27 -32 -80 -6 -80 39 0 25 28 56 50 56 7 0 21 -7 31 -16 10 -9 26 -14 36
-12 16 3 15 7 -9 31 -37 37 -80 36 -119 -2z"/>
<path d="M2440 2171 c23 -6 25 -12 31 -86 l5 -80 2 82 c2 76 4 82 25 86 12 2
-3 4 -33 5 -37 0 -47 -2 -30 -7z"/>
<path d="M2553 2095 c0 -49 2 -71 4 -47 4 42 4 42 44 42 39 0 39 0 39 -40 0
-22 5 -40 10 -40 6 0 10 35 10 85 0 50 -4 85 -10 85 -5 0 -10 -18 -10 -40 0
-40 0 -40 -39 -40 -40 0 -40 0 -44 43 -2 23 -4 2 -4 -48z"/>
<path d="M2700 2095 c0 -50 4 -85 10 -85 6 0 10 35 10 85 0 50 -4 85 -10 85
-6 0 -10 -35 -10 -85z"/>
<path d="M2766 2167 c-29 -21 -15 -50 37 -75 31 -15 47 -29 47 -41 0 -32 -48
-42 -75 -15 -20 20 -33 11 -15 -11 15 -18 70 -20 94 -2 32 24 17 59 -34 78
-36 13 -45 21 -45 40 0 18 6 25 24 27 13 2 28 -1 34 -7 17 -17 31 -13 17 4
-15 19 -60 19 -84 2z"/>
<path d="M2960 2095 l0 -85 36 0 c51 0 74 15 74 50 0 16 -5 32 -10 35 -6 3 -7
17 -4 31 9 35 -12 54 -57 54 l-39 0 0 -85z m83 51 c7 -19 -12 -36 -40 -36 -18
0 -23 6 -23 25 0 21 5 25 29 25 16 0 31 -6 34 -14z m11 -71 c10 -28 -5 -45
-40 -45 -31 0 -34 3 -34 30 0 27 3 30 34 30 21 0 36 -6 40 -15z"/>
<path d="M3120 2100 c-18 -45 -30 -83 -27 -87 4 -3 11 6 16 21 9 22 17 26 50
26 33 0 40 -4 45 -25 4 -14 11 -25 16 -25 9 0 -3 36 -44 135 -8 19 -17 35 -19
35 -2 0 -18 -36 -37 -80z m58 3 c11 -32 10 -33 -19 -33 -33 0 -33 1 -17 47 13
36 20 34 36 -14z"/>
<path d="M3275 2155 c-52 -51 -16 -145 55 -145 21 0 41 9 61 29 41 41 37 51
-18 49 -44 -1 -45 -2 -10 -5 41 -5 45 -12 20 -36 -54 -47 -134 0 -117 69 6 22
48 54 73 54 5 0 23 -12 40 -26 34 -28 43 -16 11 16 -29 29 -84 27 -115 -5z"/>
<path d="M3520 2095 c0 -50 4 -85 10 -85 6 0 10 35 10 85 0 50 -4 85 -10 85
-6 0 -10 -35 -10 -85z"/>
<path d="M3586 2164 c-32 -31 -8 -63 57 -78 35 -8 46 -34 22 -52 -25 -19 -50
-18 -70 2 -9 9 -19 13 -23 9 -12 -11 30 -35 63 -35 37 0 55 16 55 48 0 18 -10
27 -50 44 -34 14 -50 26 -50 39 0 24 44 36 65 19 9 -7 19 -10 22 -6 11 10 -18
26 -49 26 -15 0 -34 -7 -42 -16z"/>
<path d="M3792 2094 c1 -89 1 -89 7 -24 l6 65 44 -62 c24 -35 45 -63 47 -63 2
0 4 38 4 85 0 50 -4 85 -10 85 -6 0 -10 -27 -10 -62 l0 -62 -45 64 -45 64 2
-90z"/>
<path d="M3958 2150 c-25 -26 -29 -36 -24 -63 20 -107 166 -97 166 12 0 78
-85 108 -142 51z m115 -12 c37 -44 6 -111 -51 -111 -70 0 -99 80 -45 123 32
25 69 20 96 -12z"/>
<path d="M4140 2171 c23 -6 25 -12 31 -86 l5 -80 2 82 c2 76 4 82 25 86 12 2
-3 4 -33 5 -37 0 -47 -2 -30 -7z"/>
<path d="M4354 2144 c-9 -21 -24 -59 -35 -83 -22 -51 -22 -51 -9 -51 5 0 12
11 16 25 5 21 12 25 45 25 34 0 41 -4 50 -27 6 -16 13 -23 15 -17 4 9 -50 150
-62 163 -2 2 -11 -13 -20 -35z m46 -65 c0 -5 -13 -9 -30 -9 -19 0 -28 4 -25
13 2 6 9 26 15 42 l12 30 14 -34 c8 -18 14 -37 14 -42z"/>
<path d="M6404 2145 c-54 -130 -55 -135 -35 -135 11 0 23 9 26 20 9 28 58 27
77 -1 7 -12 21 -20 29 -18 14 3 11 17 -18 87 -39 91 -56 101 -79 47z m46 -57
c0 -10 -6 -18 -13 -18 -22 0 -26 11 -15 36 12 26 28 16 28 -18z"/>
<path d="M6520 2165 c0 -9 9 -15 25 -15 24 0 25 -2 25 -70 0 -63 2 -70 20 -70
18 0 20 7 20 70 l0 70 50 0 50 0 0 -70 c0 -55 3 -70 15 -70 11 0 15 16 17 68
3 61 5 67 26 70 12 2 22 10 22 18 0 11 -25 14 -135 14 -113 0 -135 -2 -135
-15z"/>
<path d="M6810 2095 l0 -85 50 0 c38 0 50 4 50 15 0 10 -10 15 -30 15 -23 0
-30 4 -30 20 0 16 7 20 30 20 20 0 30 5 30 15 0 10 -10 15 -30 15 -23 0 -30 4
-30 20 0 16 7 20 30 20 20 0 30 5 30 15 0 11 -12 15 -50 15 l-50 0 0 -85z"/>
<path d="M6940 2095 c0 -68 3 -85 14 -85 11 0 16 15 18 53 l3 52 30 -52 c18
-32 37 -53 48 -53 15 0 17 11 17 85 0 78 -2 85 -19 85 -17 0 -20 -8 -23 -47
l-3 -48 -25 48 c-15 29 -32 47 -42 47 -16 0 -18 -11 -18 -85z"/>
<path d="M7090 2165 c0 -9 9 -15 25 -15 24 0 25 -2 25 -70 0 -55 3 -70 15 -70
11 0 15 16 17 68 3 61 5 67 26 70 12 2 22 10 22 18 0 11 -15 14 -65 14 -51 0
-65 -3 -65 -15z"/>
<path d="M7240 2095 c0 -78 2 -85 20 -85 18 0 20 7 20 85 0 78 -2 85 -20 85
-18 0 -20 -7 -20 -85z"/>
<path d="M7334 2156 c-75 -64 10 -182 97 -135 31 16 49 66 37 101 -21 59 -86
76 -134 34z m87 -25 c20 -16 22 -23 14 -46 -13 -36 -46 -48 -74 -29 -27 20
-27 59 1 78 28 20 31 20 59 -3z"/>
<path d="M7500 2095 c0 -78 2 -85 20 -85 17 0 20 7 21 53 l0 52 27 -52 c17
-34 32 -53 44 -53 16 0 18 10 18 85 0 68 -3 85 -14 85 -11 0 -16 -15 -18 -52
l-3 -53 -29 53 c-19 33 -36 52 -48 52 -16 0 -18 -9 -18 -85z"/>
<path d="M7886 2149 c-14 -17 -26 -41 -26 -54 0 -13 12 -37 26 -54 32 -38 83
-42 115 -10 26 26 16 39 -11 14 -43 -39 -110 -9 -110 50 0 59 67 89 110 50 27
-25 37 -12 11 14 -32 32 -83 28 -115 -10z"/>
<path d="M8050 2095 l0 -85 50 0 c28 0 50 5 50 10 0 6 -18 10 -40 10 -38 0
-40 2 -40 29 0 28 3 30 43 34 l42 4 -43 1 c-42 2 -43 3 -40 35 3 29 7 33 43
38 39 6 39 6 -12 8 l-53 1 0 -85z"/>
<path d="M8270 2166 c-23 -29 -8 -59 39 -76 48 -16 60 -32 41 -55 -16 -20 -49
-19 -72 2 -23 21 -35 11 -13 -11 24 -24 81 -21 99 6 20 28 3 57 -42 72 -48 17
-60 33 -39 53 14 15 22 15 47 6 17 -6 30 -8 30 -3 0 22 -72 27 -90 6z"/>
<path d="M8444 2144 c-9 -21 -24 -59 -35 -83 -22 -51 -22 -51 -9 -51 5 0 12
11 16 25 5 21 12 25 45 25 34 0 41 -4 50 -27 6 -16 13 -23 15 -17 4 9 -50 150
-62 163 -2 2 -11 -13 -20 -35z m46 -65 c0 -5 -13 -9 -30 -9 -19 0 -28 4 -25
13 2 6 9 26 15 42 l12 30 14 -34 c8 -18 14 -37 14 -42z"/>
<path d="M8576 2149 c-14 -17 -26 -41 -26 -54 0 -13 12 -37 26 -54 32 -38 83
-42 115 -10 26 26 16 39 -11 14 -43 -39 -110 -9 -110 50 0 59 67 89 110 50 27
-25 37 -12 11 14 -32 32 -83 28 -115 -10z"/>
<path d="M8810 2097 c0 -51 4 -87 10 -87 6 0 10 27 10 62 l0 61 41 -59 c23
-32 43 -61 45 -63 2 -2 3 36 2 85 -1 89 -1 89 -7 24 l-6 -65 -39 55 c-22 30
-43 59 -48 65 -4 5 -8 -30 -8 -78z"/>
<path d="M9000 2095 l0 -85 50 0 c28 0 50 5 50 10 0 6 -18 10 -40 10 -38 0
-40 2 -40 29 0 28 3 30 43 34 l42 4 -42 1 c-42 2 -43 3 -43 36 0 34 1 35 43
39 40 3 40 4 -10 5 l-53 2 0 -85z"/>
<path d="M9152 2168 c-27 -27 -14 -55 38 -76 28 -12 50 -27 50 -34 0 -36 -56
-51 -80 -23 -7 8 -17 15 -23 15 -5 0 -2 -9 8 -20 33 -36 115 -18 115 25 0 20
-26 43 -59 50 -40 9 -58 30 -41 50 14 17 56 20 65 5 3 -5 11 -10 17 -10 7 0 6
6 -2 15 -15 18 -71 20 -88 3z"/>
<path d="M9290 2171 c23 -6 25 -12 31 -86 l5 -80 2 82 c2 76 4 82 25 86 12 2
-3 4 -33 5 -37 0 -47 -2 -30 -7z"/>
<path d="M9460 2095 c0 -50 4 -85 10 -85 6 0 10 16 10 35 0 32 2 35 29 35 34
0 61 23 61 50 0 30 -28 50 -71 50 l-39 0 0 -85z m90 61 c0 -2 3 -11 6 -19 7
-20 -22 -47 -52 -47 -21 0 -24 5 -24 35 0 33 2 35 35 35 19 0 35 -2 35 -4z"/>
<path d="M9650 2180 c0 -3 -16 -43 -35 -88 -19 -45 -31 -82 -26 -82 4 0 13 11
19 25 9 20 19 25 47 25 28 0 38 -5 47 -25 6 -14 15 -25 19 -25 4 0 -5 31 -21
70 -28 68 -49 110 -50 100z m30 -97 c0 -7 -11 -13 -25 -13 -28 0 -30 4 -13 51
l12 34 12 -30 c7 -17 13 -36 14 -42z"/>
<path d="M9762 2168 c-27 -27 -14 -55 38 -76 28 -12 50 -27 50 -34 0 -36 -56
-51 -80 -23 -7 8 -17 15 -23 15 -5 0 -2 -9 8 -20 33 -36 115 -18 115 25 0 20
-26 43 -59 50 -40 9 -58 30 -41 50 14 17 56 20 65 5 3 -5 11 -10 17 -10 7 0 6
6 -2 15 -15 18 -71 20 -88 3z"/>
<path d="M9962 2114 c-2 -79 12 -104 61 -104 45 0 57 23 55 103 l-2 72 -3 -68
c-3 -58 -7 -69 -28 -83 -18 -12 -28 -13 -44 -4 -23 12 -29 31 -34 105 -3 40
-4 36 -5 -21z"/>
<path d="M10120 2097 c0 -51 4 -87 10 -87 6 0 10 27 10 62 l0 61 41 -59 c23
-32 43 -61 45 -63 2 -2 3 36 2 85 -1 89 -1 89 -7 24 l-6 -65 -39 55 c-22 30
-43 59 -48 65 -4 5 -8 -30 -8 -78z"/>
<path d="M2310 2120 c0 -5 5 -10 10 -10 6 0 10 5 10 10 0 6 -4 10 -10 10 -5 0
-10 -4 -10 -10z"/>
<path d="M7740 2120 c0 -5 5 -10 10 -10 6 0 10 5 10 10 0 6 -4 10 -10 10 -5 0
-10 -4 -10 -10z"/>
<path d="M2310 2020 c0 -5 5 -10 10 -10 6 0 10 5 10 10 0 6 -4 10 -10 10 -5 0
-10 -4 -10 -10z"/>
<path d="M7740 2020 c0 -5 5 -10 10 -10 6 0 10 5 10 10 0 6 -4 10 -10 10 -5 0
-10 -4 -10 -10z"/>
<path d="M7947 1963 c-4 -3 -7 -11 -7 -17 0 -6 5 -5 12 2 6 6 9 14 7 17 -3 3
-9 2 -12 -2z"/>
<path d="M1178 1913 c21 -4 22 -9 22 -84 0 -51 4 -78 10 -74 6 3 10 39 10 80
0 68 2 74 23 78 12 2 -3 4 -33 4 -30 0 -45 -2 -32 -4z"/>
<path d="M1306 1899 c-56 -44 -19 -149 53 -149 39 0 79 36 87 77 5 27 1 37
-24 63 -36 36 -77 39 -116 9z m98 -10 c51 -40 22 -122 -44 -122 -75 0 -96 105
-27 133 33 13 42 12 71 -11z"/>
<path d="M1470 1915 c0 -3 14 -24 30 -47 21 -28 30 -54 31 -82 l2 -41 6 45 c4
27 18 61 35 83 16 21 26 41 22 45 -4 4 -11 0 -16 -9 -5 -9 -17 -26 -28 -38
l-18 -23 -24 36 c-22 32 -40 46 -40 31z"/>
<path d="M1770 1911 c23 -6 25 -12 31 -86 l5 -80 2 82 c2 76 4 82 25 86 12 2
-3 4 -33 5 -37 0 -47 -2 -30 -7z"/>
<path d="M1902 1900 c-62 -58 -22 -150 64 -150 37 0 74 42 74 85 0 72 -86 113
-138 65z m82 -1 c75 -34 37 -146 -44 -130 -54 10 -68 85 -24 120 31 24 35 25
68 10z"/>
<path d="M2162 1839 c-18 -45 -30 -84 -28 -87 3 -2 11 7 17 22 10 21 19 26 50
26 33 0 40 -4 45 -25 3 -14 11 -25 16 -25 11 0 10 2 -30 102 -15 37 -29 68
-32 68 -3 0 -20 -37 -38 -81z m57 10 c6 -18 11 -34 11 -35 0 -2 -13 -4 -30 -4
-16 0 -30 2 -30 4 0 14 24 66 30 66 4 0 13 -14 19 -31z"/>
<path d="M2315 1839 c19 -44 35 -84 35 -87 0 -17 21 21 49 87 34 81 34 81 23
81 -4 0 -18 -27 -31 -60 -14 -34 -27 -63 -31 -65 -4 -3 -20 25 -35 60 -15 36
-31 65 -36 65 -4 0 7 -36 26 -81z"/>
<path d="M2482 1900 c-62 -58 -22 -150 64 -150 37 0 74 42 74 85 0 72 -86 113
-138 65z m82 -1 c75 -34 37 -146 -44 -130 -54 10 -68 85 -24 120 31 24 35 25
68 10z"/>
<path d="M2650 1835 c0 -50 4 -85 10 -85 6 0 10 35 10 85 0 50 -4 85 -10 85
-6 0 -10 -35 -10 -85z"/>
<path d="M2710 1835 l0 -85 36 0 c44 0 94 45 94 85 0 40 -50 85 -94 85 l-36 0
0 -85z m95 45 c38 -42 9 -110 -47 -110 -28 0 -28 0 -28 65 0 65 0 65 28 65 16
0 37 -9 47 -20z"/>
<path d="M2940 1835 l0 -85 36 0 c44 0 94 45 94 85 0 40 -50 85 -94 85 l-36 0
0 -85z m95 45 c38 -42 9 -110 -47 -110 -28 0 -28 0 -28 65 0 65 0 65 28 65 16
0 37 -9 47 -20z"/>
<path d="M3122 1839 c-18 -45 -30 -84 -28 -87 3 -2 11 7 17 22 10 21 19 26 50
26 33 0 40 -4 45 -25 3 -14 11 -25 16 -25 11 0 10 2 -30 102 -15 37 -29 68
-32 68 -3 0 -20 -37 -38 -81z m57 10 c6 -18 11 -34 11 -35 0 -2 -13 -4 -30 -4
-16 0 -30 2 -30 4 0 14 24 66 30 66 4 0 13 -14 19 -31z"/>
<path d="M3262 1834 c1 -89 1 -89 7 -24 l6 65 44 -62 c24 -35 45 -63 47 -63 2
0 4 38 4 85 0 50 -4 85 -10 85 -6 0 -10 -27 -10 -62 l0 -62 -45 64 -45 64 2
-90z"/>
<path d="M3430 1900 c-59 -59 -19 -150 66 -150 28 0 74 40 74 65 0 11 -10 15
-42 13 -37 -1 -39 -2 -10 -5 42 -5 42 -30 0 -47 -52 -22 -98 6 -98 60 0 66 79
94 123 42 10 -11 20 -18 23 -15 4 3 -5 17 -19 31 -33 32 -88 35 -117 6z"/>
<path d="M3600 1835 l0 -85 50 0 c28 0 50 5 50 10 0 6 -18 10 -40 10 -38 0
-40 2 -40 29 0 28 3 30 43 34 l42 4 -43 1 c-42 2 -43 3 -40 35 3 29 7 33 43
38 39 6 39 6 -12 8 l-53 1 0 -85z"/>
<path d="M3740 1835 c0 -50 4 -85 10 -85 6 0 10 16 10 35 0 19 4 35 9 35 6 0
22 -16 37 -35 14 -19 31 -35 36 -35 6 0 -2 16 -16 35 -15 19 -23 35 -17 35 16
0 41 30 41 50 0 30 -28 50 -71 50 l-39 0 0 -85z m90 61 c0 -2 3 -11 6 -19 7
-20 -22 -47 -52 -47 -21 0 -24 5 -24 35 0 33 2 35 35 35 19 0 35 -2 35 -4z"/>
<path d="M3952 1833 c1 -49 3 -69 5 -46 4 41 5 42 46 46 l42 4 -43 1 c-42 2
-43 3 -40 35 3 30 6 32 48 38 l45 6 -52 1 -53 2 2 -87z"/>
<path d="M4070 1835 c0 -50 4 -85 10 -85 6 0 10 16 10 35 0 19 4 35 9 35 6 0
22 -16 37 -35 14 -19 31 -35 36 -35 6 0 -2 16 -16 35 -15 19 -23 35 -17 35 16
0 41 30 41 50 0 30 -28 50 -71 50 l-39 0 0 -85z m90 61 c0 -2 3 -11 6 -19 7
-20 -22 -47 -52 -47 -21 0 -24 5 -24 35 0 33 2 35 35 35 19 0 35 -2 35 -4z"/>
<path d="M4228 1890 c-25 -26 -29 -36 -24 -63 20 -107 166 -97 166 12 0 78
-85 108 -142 51z m115 -12 c37 -44 6 -111 -51 -111 -70 0 -99 80 -45 123 32
25 69 20 96 -12z"/>
<path d="M4427 1904 c-4 -10 -11 -41 -17 -69 -6 -27 -13 -58 -16 -67 -3 -10
-1 -18 4 -18 5 0 15 28 22 62 l14 62 18 -45 c10 -24 22 -53 26 -63 7 -16 13
-8 34 45 l26 64 12 -62 c7 -35 17 -63 22 -63 6 0 8 6 6 13 -3 6 -11 42 -18 80
-8 37 -17 67 -20 67 -4 0 -17 -27 -29 -61 -13 -33 -24 -59 -27 -57 -2 2 -14
33 -27 68 -18 48 -26 59 -30 44z"/>
<path d="M6412 1853 c-2 -57 -6 -74 -19 -81 -10 -5 -24 -7 -30 -5 -7 3 -13 0
-13 -6 0 -16 46 -13 59 3 8 9 11 41 8 88 l-3 73 -2 -72z"/>
<path d="M6482 1900 c-62 -58 -22 -150 64 -150 37 0 74 42 74 85 0 72 -86 113
-138 65z m82 -1 c75 -34 37 -146 -44 -130 -54 10 -68 85 -24 120 31 24 35 25
68 10z"/>
<path d="M6650 1857 c0 -74 18 -107 59 -107 50 0 65 20 69 99 3 48 1 71 -7 71
-7 0 -11 -25 -11 -70 0 -64 -2 -71 -22 -79 -13 -5 -32 -5 -43 -1 -17 6 -20 18
-23 79 -4 88 -22 95 -22 8z"/>
<path d="M6810 1835 l0 -85 50 0 c28 0 50 5 50 10 0 6 -18 10 -40 10 -38 0
-40 2 -40 29 0 28 3 30 43 34 l42 4 -42 1 c-42 2 -43 3 -43 36 0 34 1 35 43
39 40 3 40 4 -10 5 l-53 2 0 -85z"/>
<path d="M6958 1913 c21 -4 22 -9 22 -84 0 -51 4 -78 10 -74 6 3 10 39 10 80
0 68 2 74 23 78 12 2 -3 4 -33 4 -30 0 -45 -2 -32 -4z"/>
<path d="M7202 1833 c1 -49 3 -71 5 -50 4 34 7 37 37 37 39 0 56 15 56 52 0
32 -24 48 -69 48 l-31 0 2 -87z m84 45 c8 -25 -20 -50 -51 -46 -15 2 -21 12
-23 36 -3 31 -2 32 32 32 27 0 36 -5 42 -22z"/>
<path d="M7348 1890 c-25 -26 -29 -36 -24 -63 20 -107 166 -97 166 12 0 78
-85 108 -142 51z m115 -12 c37 -44 6 -111 -51 -111 -70 0 -99 80 -45 123 32
25 69 20 96 -12z"/>
<path d="M7522 1849 c3 -55 8 -74 23 -85 29 -21 72 -17 89 8 18 25 23 148 6
148 -6 0 -10 -30 -10 -70 0 -58 -3 -71 -19 -80 -13 -7 -28 -7 -45 0 -25 9 -26
14 -26 80 0 45 -4 70 -11 70 -8 0 -10 -23 -7 -71z"/>
<path d="M7680 1835 c0 -50 4 -85 10 -85 6 0 10 16 10 35 0 19 4 35 9 35 6 0
22 -16 37 -35 14 -19 31 -35 36 -35 6 0 -2 16 -16 35 -15 19 -23 35 -17 35 16
0 41 30 41 50 0 30 -28 50 -71 50 l-39 0 0 -85z m90 61 c0 -2 3 -11 6 -19 7
-20 -22 -47 -52 -47 -21 0 -24 5 -24 35 0 33 2 35 35 35 19 0 35 -2 35 -4z"/>
<path d="M7890 1835 l0 -85 51 0 c31 0 48 4 44 10 -3 6 -24 10 -46 10 -37 0
-39 2 -39 29 0 28 3 30 43 34 l42 4 -43 1 c-42 2 -43 3 -40 35 3 30 6 32 48
38 l45 6 -52 1 -53 2 0 -85z"/>
<path d="M8045 1839 c19 -44 35 -84 35 -87 0 -17 21 21 49 87 34 81 34 81 23
81 -4 0 -18 -27 -31 -60 -14 -34 -27 -63 -31 -65 -4 -3 -20 25 -35 60 -15 36
-31 65 -36 65 -4 0 7 -36 26 -81z"/>
<path d="M8194 1835 c0 -49 1 -71 3 -48 2 23 2 64 0 90 -2 26 -3 8 -3 -42z"/>
<path d="M8248 1913 c21 -4 22 -9 22 -84 0 -51 4 -78 10 -74 6 3 10 39 10 80
0 68 2 74 23 78 12 2 -3 4 -33 4 -30 0 -45 -2 -32 -4z"/>
<path d="M8350 1835 l0 -85 50 0 c28 0 50 5 50 10 0 6 -18 10 -40 10 -38 0
-40 2 -40 29 0 28 3 30 43 34 l42 4 -42 1 c-42 2 -43 3 -43 36 0 34 1 35 43
39 40 3 40 4 -10 5 l-53 2 0 -85z"/>
<path d="M8490 1835 c0 -50 4 -85 10 -85 6 0 10 16 10 35 0 19 4 35 9 35 5 0
21 -16 35 -35 15 -19 32 -35 37 -35 6 0 -2 15 -16 34 -26 34 -26 34 -6 41 12
3 24 17 27 31 9 36 -20 64 -68 64 l-38 0 0 -85z m87 49 c9 -24 -10 -49 -41
-52 -24 -3 -26 0 -26 32 0 33 2 36 30 36 19 0 33 -6 37 -16z"/>
<path d="M8698 1913 c21 -4 22 -9 22 -84 0 -46 4 -79 10 -79 6 0 10 33 10 79
0 75 1 80 23 84 12 2 -3 4 -33 4 -30 0 -45 -2 -32 -4z"/>
<path d="M8825 1895 c-17 -16 -25 -35 -25 -60 0 -91 126 -117 160 -34 36 86
-70 160 -135 94z m99 -6 c44 -35 30 -110 -24 -120 -80 -16 -119 94 -46 129 31
15 40 14 70 -9z"/>
<path d="M9002 1854 c-2 -79 12 -104 61 -104 45 0 57 23 55 103 l-2 72 -3 -68
c-3 -58 -7 -69 -28 -83 -18 -12 -28 -13 -44 -4 -23 12 -29 31 -34 105 -3 40
-4 36 -5 -21z"/>
<path d="M9168 1910 c20 -9 22 -17 24 -87 l2 -78 5 79 c5 67 9 80 26 87 14 5
4 8 -30 8 -40 0 -45 -2 -27 -9z"/>
<path d="M9340 1835 l0 -85 34 0 c22 0 45 9 62 24 60 51 20 146 -62 146 l-34
0 0 -85z m92 48 c44 -40 10 -113 -54 -113 -28 0 -28 1 -28 65 l0 65 32 0 c17
0 40 -7 50 -17z"/>
<path d="M9520 1840 c-18 -45 -30 -83 -27 -87 4 -3 11 6 16 21 9 22 17 26 50
26 33 0 40 -4 45 -25 4 -14 11 -25 16 -25 9 0 -3 36 -44 135 -8 19 -17 35 -19
35 -2 0 -18 -36 -37 -80z m58 3 c11 -32 10 -33 -19 -33 -33 0 -33 1 -17 47 13
36 20 34 36 -14z"/>
<path d="M9650 1836 c0 -98 18 -118 22 -24 l3 61 43 -61 c24 -34 45 -62 48
-62 2 0 4 38 4 85 0 98 -18 116 -22 23 l-3 -63 -33 52 c-57 89 -62 88 -62 -11z"/>
<path d="M9830 1900 c-59 -59 -19 -150 66 -150 28 0 74 40 74 65 0 11 -10 15
-42 13 -37 -1 -39 -2 -10 -5 42 -5 42 -30 0 -47 -52 -22 -98 6 -98 60 0 66 79
94 123 42 10 -11 20 -18 23 -15 4 3 -5 17 -19 31 -33 32 -88 35 -117 6z"/>
<path d="M10000 1835 l0 -85 50 0 c28 0 50 5 50 10 0 6 -18 10 -40 10 -38 0
-40 2 -40 29 0 28 3 30 43 34 l42 4 -43 1 c-42 2 -43 3 -40 35 3 29 7 33 43
38 39 6 39 6 -12 8 l-53 1 0 -85z"/>
<path d="M10140 1835 c0 -50 4 -85 10 -85 6 0 10 16 10 35 0 19 4 35 9 35 5 0
21 -16 35 -35 15 -19 32 -35 37 -35 6 0 -2 15 -16 34 -26 34 -26 34 -6 41 12
3 24 17 27 31 9 36 -20 64 -68 64 l-38 0 0 -85z m87 49 c9 -24 -10 -49 -41
-52 -24 -3 -26 0 -26 32 0 33 2 36 30 36 19 0 33 -6 37 -16z"/>
<path d="M1635 1760 c3 -5 10 -10 16 -10 5 0 9 5 9 10 0 6 -7 10 -16 10 -8 0
-12 -4 -9 -10z"/>
<path d="M7065 1760 c3 -5 10 -10 16 -10 5 0 9 5 9 10 0 6 -7 10 -16 10 -8 0
-12 -4 -9 -10z"/>
<path d="M6626 1684 c-5 -14 -4 -15 9 -4 17 14 19 20 6 20 -5 0 -12 -7 -15
-16z"/>
<path d="M8980 1696 c0 -2 7 -9 15 -16 13 -11 14 -10 9 4 -5 14 -24 23 -24 12z"/>
<path d="M9370 1685 c-7 -9 -8 -15 -2 -15 5 0 12 7 16 15 3 8 4 15 2 15 -2 0
-9 -7 -16 -15z"/>
<path d="M6520 1653 c0 -10 5 -25 10 -33 7 -11 10 -7 10 18 0 17 -4 32 -10 32
-5 0 -10 -8 -10 -17z"/>
<path d="M9272 1640 c0 -19 2 -27 5 -17 2 9 2 25 0 35 -3 9 -5 1 -5 -18z"/>
<path d="M1182 1638 c-27 -27 -14 -55 38 -76 28 -12 50 -27 50 -34 0 -36 -56
-51 -80 -23 -7 8 -17 15 -23 15 -5 0 -2 -9 8 -20 33 -36 115 -18 115 25 0 20
-26 43 -59 50 -40 9 -58 30 -41 50 14 17 56 20 65 5 3 -5 11 -10 17 -10 7 0 6
6 -2 15 -15 18 -71 20 -88 3z"/>
<path d="M1310 1587 c0 -74 18 -107 59 -107 50 0 65 20 69 99 3 48 1 71 -7 71
-7 0 -11 -25 -11 -70 0 -64 -2 -71 -22 -79 -13 -5 -32 -5 -43 -1 -17 6 -20 18
-23 79 -4 88 -22 95 -22 8z"/>
<path d="M1470 1565 c0 -50 4 -85 10 -85 6 0 10 18 10 39 0 40 0 40 43 44 l42
4 -42 1 c-42 2 -43 3 -43 36 0 34 1 35 43 39 40 3 40 4 -10 5 l-53 2 0 -85z"/>
<path d="M1602 1563 c1 -49 3 -69 5 -46 4 41 5 42 46 46 l42 4 -43 1 c-42 2
-43 3 -40 35 3 30 6 32 48 38 l45 6 -52 1 -53 2 2 -87z"/>
<path d="M1746 1629 c-56 -44 -19 -149 53 -149 39 0 79 36 87 77 5 27 1 37
-24 63 -36 36 -77 39 -116 9z m98 -10 c51 -40 22 -122 -44 -122 -75 0 -96 105
-27 133 33 13 42 12 71 -11z"/>
<path d="M1936 1619 c-14 -17 -26 -41 -26 -54 0 -13 12 -37 26 -54 32 -38 83
-42 115 -10 26 26 16 39 -11 14 -43 -39 -110 -9 -110 50 0 59 67 89 110 50 27
-25 37 -12 11 14 -32 32 -83 28 -115 -10z"/>
<path d="M2144 1614 c-9 -21 -24 -59 -35 -83 -22 -51 -22 -51 -9 -51 5 0 12
11 16 25 5 21 12 25 45 25 34 0 41 -4 50 -27 6 -16 13 -23 15 -17 4 9 -50 150
-62 163 -2 2 -11 -13 -20 -35z m46 -65 c0 -5 -13 -9 -30 -9 -19 0 -28 4 -25
13 2 6 9 26 15 42 l12 30 14 -34 c8 -18 14 -37 14 -42z"/>
<path d="M2260 1641 c23 -6 25 -12 31 -86 l5 -80 2 82 c2 76 4 82 25 86 12 2
-3 4 -33 5 -37 0 -47 -2 -30 -7z"/>
<path d="M2374 1565 c0 -49 1 -71 3 -48 2 23 2 64 0 90 -2 26 -3 8 -3 -42z"/>
<path d="M2445 1625 c-17 -16 -25 -35 -25 -60 0 -91 126 -117 160 -34 36 86
-70 160 -135 94z m99 -6 c44 -35 30 -110 -24 -120 -80 -16 -119 94 -46 129 31
15 40 14 70 -9z"/>
<path d="M2620 1565 c0 -97 17 -117 22 -25 l3 60 43 -62 42 -62 -2 89 c-1 89
-1 90 -7 25 l-6 -65 -43 63 c-23 34 -45 62 -47 62 -3 0 -5 -38 -5 -85z"/>
<path d="M2903 1565 c0 -49 2 -73 4 -52 2 20 7 37 11 37 4 0 17 -16 30 -35 12
-19 27 -35 33 -35 6 0 -3 19 -20 42 -17 22 -27 46 -24 52 4 6 18 26 31 44 13
17 19 32 13 32 -6 0 -21 -16 -33 -35 -13 -19 -26 -35 -30 -35 -4 0 -9 17 -11
38 -2 20 -4 -3 -4 -53z"/>
<path d="M3020 1565 l0 -85 51 0 c31 0 48 4 44 10 -3 6 -24 10 -46 10 -37 0
-39 2 -39 29 0 28 3 30 43 34 l42 4 -43 1 c-42 2 -43 3 -40 35 3 30 6 32 48
38 l45 6 -52 1 -53 2 0 -85z"/>
<path d="M3150 1565 l0 -85 50 0 c28 0 50 5 50 10 0 6 -18 10 -40 10 -38 0
-40 2 -40 29 0 28 3 30 43 34 l42 4 -43 1 c-42 2 -43 3 -40 35 3 29 7 33 43
38 39 6 39 6 -12 8 l-53 1 0 -85z"/>
<path d="M3290 1565 c0 -50 4 -85 10 -85 6 0 10 16 10 35 0 32 2 35 29 35 34
0 61 23 61 50 0 30 -28 50 -71 50 l-39 0 0 -85z m90 61 c0 -2 3 -11 6 -19 7
-20 -22 -47 -52 -47 -21 0 -24 5 -24 35 0 33 2 35 35 35 19 0 35 -2 35 -4z"/>
<path d="M3534 1614 c-9 -21 -24 -59 -35 -83 -22 -51 -22 -51 -9 -51 5 0 12
11 16 25 5 21 12 25 45 25 34 0 41 -4 50 -27 6 -16 13 -23 15 -17 4 9 -50 150
-62 163 -2 2 -11 -13 -20 -35z m46 -65 c0 -5 -13 -9 -30 -9 -19 0 -28 4 -25
13 2 6 9 26 15 42 l12 30 14 -34 c8 -18 14 -37 14 -42z"/>
<path d="M3652 1568 c10 -45 20 -84 22 -85 2 -2 14 26 27 62 12 36 26 62 30
58 3 -5 14 -30 24 -58 10 -27 21 -54 25 -58 4 -5 13 20 19 55 7 35 15 74 18
87 4 17 2 22 -6 17 -6 -4 -11 -15 -11 -24 0 -9 -5 -35 -11 -57 l-12 -40 -12
35 c-7 19 -18 49 -25 65 l-12 30 -22 -57 c-12 -31 -24 -59 -27 -62 -3 -3 -11
21 -17 54 -7 33 -17 60 -21 60 -5 0 0 -37 11 -82z"/>
<path d="M3884 1614 c-9 -21 -24 -59 -35 -83 -22 -51 -22 -51 -9 -51 5 0 12
11 16 25 5 21 12 25 45 25 34 0 41 -4 50 -27 6 -16 13 -23 15 -17 4 9 -50 150
-62 163 -2 2 -11 -13 -20 -35z m46 -65 c0 -5 -13 -9 -30 -9 -19 0 -28 4 -25
13 2 6 9 26 15 42 l12 30 14 -34 c8 -18 14 -37 14 -42z"/>
<path d="M3990 1645 c0 -3 14 -24 30 -47 21 -28 30 -54 31 -82 l2 -41 6 45 c4
27 18 61 35 83 16 21 26 41 22 45 -4 4 -11 0 -16 -9 -5 -9 -17 -26 -28 -38
l-18 -23 -24 36 c-22 32 -40 46 -40 31z"/>
<path d="M4220 1565 c0 -50 4 -85 10 -85 6 0 10 18 10 39 0 40 0 40 43 44 l42
4 -42 1 c-42 2 -43 3 -43 36 0 34 1 35 43 39 40 3 40 4 -10 5 l-53 2 0 -85z"/>
<path d="M4340 1565 c0 -50 4 -85 10 -85 6 0 10 16 10 35 0 19 4 35 9 35 6 0
22 -16 37 -35 14 -19 31 -35 36 -35 6 0 -2 16 -16 35 -15 19 -23 35 -17 35 16
0 41 30 41 50 0 30 -28 50 -71 50 l-39 0 0 -85z m90 61 c0 -2 3 -11 6 -19 7
-20 -22 -47 -52 -47 -21 0 -24 5 -24 35 0 33 2 35 35 35 19 0 35 -2 35 -4z"/>
<path d="M4506 1629 c-56 -44 -19 -149 53 -149 39 0 79 36 87 77 5 27 1 37
-24 63 -36 36 -77 39 -116 9z m98 -10 c51 -40 22 -122 -44 -122 -75 0 -96 105
-27 133 33 13 42 12 71 -11z"/>
<path d="M4684 1573 c-9 -43 -19 -81 -21 -85 -2 -5 0 -8 6 -8 5 0 15 25 22 55
7 31 16 52 20 48 4 -4 16 -30 27 -58 l20 -50 15 36 c8 20 18 46 22 58 10 31
23 17 31 -34 3 -25 11 -48 16 -51 9 -6 6 21 -16 120 l-12 51 -23 -60 c-13 -33
-27 -63 -31 -68 -3 -4 -17 22 -29 58 -13 36 -25 65 -26 65 -2 0 -11 -35 -21
-77z"/>
<path d="M6370 1565 l0 -85 34 0 c22 0 45 9 62 24 60 51 20 146 -62 146 l-34
0 0 -85z m92 48 c44 -40 10 -113 -54 -113 -28 0 -28 1 -28 65 l0 65 32 0 c17
0 40 -7 50 -17z"/>
<path d="M6570 1565 l0 -85 50 0 c28 0 50 5 50 10 0 6 -18 10 -40 10 -38 0
-40 2 -40 29 0 28 3 30 43 34 l42 4 -42 1 c-42 2 -43 3 -43 36 0 34 1 35 43
39 40 3 40 4 -10 5 l-53 2 0 -85z"/>
<path d="M6718 1640 c20 -9 22 -17 24 -87 l2 -78 5 79 c5 67 9 80 26 87 14 5
4 8 -30 8 -40 0 -45 -2 -27 -9z"/>
<path d="M6846 1629 c-56 -44 -19 -149 53 -149 39 0 79 36 87 77 5 27 1 37
-24 63 -36 36 -77 39 -116 9z m98 -10 c51 -40 22 -122 -44 -122 -75 0 -96 105
-27 133 33 13 42 12 71 -11z"/>
<path d="M7022 1583 c-2 -81 10 -103 57 -103 46 0 61 27 59 106 -1 57 -2 60
-5 19 -5 -74 -11 -93 -34 -105 -16 -9 -26 -8 -44 4 -21 14 -25 25 -28 83 l-3
68 -2 -72z"/>
<path d="M7182 1563 c1 -49 3 -69 5 -46 4 41 5 42 46 46 l42 4 -43 1 c-42 2
-43 3 -40 35 3 30 6 32 48 38 l45 6 -52 1 -53 2 2 -87z"/>
<path d="M7300 1565 c0 -50 4 -85 10 -85 6 0 10 18 10 39 0 40 0 40 43 44 l42
4 -42 1 c-42 2 -43 3 -43 36 0 34 1 35 43 39 40 3 40 4 -10 5 l-53 2 0 -85z"/>
<path d="M7430 1565 l0 -85 51 0 c31 0 48 4 44 10 -3 6 -24 10 -46 10 -37 0
-39 2 -39 29 0 28 3 30 43 34 l42 4 -43 1 c-42 2 -43 3 -40 35 3 30 6 32 48
38 l45 6 -52 1 -53 2 0 -85z"/>
<path d="M7572 1588 c-7 -35 -15 -73 -18 -85 -4 -13 -2 -23 4 -23 6 0 13 22
17 50 4 27 11 52 15 55 5 3 16 -16 26 -42 9 -27 20 -52 24 -56 4 -5 18 20 31
55 l24 63 13 -62 c8 -35 17 -63 22 -63 7 0 -23 156 -32 166 -3 2 -15 -26 -28
-62 -12 -36 -26 -62 -30 -57 -4 4 -15 31 -25 58 -10 28 -21 53 -25 58 -3 4
-12 -21 -18 -55z"/>
<path d="M7760 1565 l0 -85 50 0 c28 0 50 5 50 10 0 6 -18 10 -40 10 -38 0
-40 2 -40 29 0 28 3 30 43 34 l42 4 -42 1 c-42 2 -43 3 -43 36 0 34 1 35 43
39 40 3 40 4 -10 5 l-53 2 0 -85z"/>
<path d="M7900 1567 c0 -51 4 -87 10 -87 6 0 10 27 10 62 l0 61 41 -59 c23
-32 43 -61 45 -63 2 -2 3 36 2 85 -1 89 -1 89 -7 24 l-6 -65 -39 55 c-22 30
-43 59 -48 65 -4 5 -8 -30 -8 -78z"/>
<path d="M8058 1643 c21 -4 22 -9 22 -84 0 -51 4 -78 10 -74 6 3 10 39 10 80
0 68 2 74 23 78 12 2 -3 4 -33 4 -30 0 -45 -2 -32 -4z"/>
<path d="M8290 1641 c23 -6 25 -12 31 -86 l5 -80 2 82 c2 76 4 82 25 86 12 2
-3 4 -33 5 -37 0 -47 -2 -30 -7z"/>
<path d="M8400 1565 l0 -85 51 0 c31 0 48 4 44 10 -3 6 -24 10 -46 10 -37 0
-39 2 -39 29 0 28 3 30 43 34 l42 4 -43 1 c-42 2 -43 3 -40 35 3 30 6 32 48
38 l45 6 -52 1 -53 2 0 -85z"/>
<path d="M8542 1564 c1 -89 1 -89 7 -24 l6 65 44 -62 c24 -35 45 -63 47 -63 2
0 4 38 4 85 0 50 -4 85 -10 85 -6 0 -10 -27 -10 -62 l0 -62 -45 64 -45 64 2
-90z"/>
<path d="M8694 1565 c0 -49 1 -71 3 -48 2 23 2 64 0 90 -2 26 -3 8 -3 -42z"/>
<path d="M8740 1565 c0 -50 4 -85 10 -85 6 0 10 16 10 35 0 19 4 35 9 35 5 0
21 -16 35 -35 15 -19 32 -35 37 -35 6 0 -2 15 -16 34 -26 34 -26 34 -6 41 12
3 24 17 27 31 9 36 -20 64 -68 64 l-38 0 0 -85z m87 49 c9 -24 -10 -49 -41
-52 -24 -3 -26 0 -26 32 0 33 2 36 30 36 19 0 33 -6 37 -16z"/>
<path d="M9000 1650 c0 -3 -16 -43 -35 -88 -19 -45 -31 -82 -26 -82 4 0 13 11
19 25 9 20 19 25 47 25 28 0 38 -5 47 -25 6 -14 15 -25 19 -25 4 0 -5 31 -21
70 -28 68 -49 110 -50 100z m30 -97 c0 -7 -11 -13 -25 -13 -28 0 -30 4 -13 51
l12 34 12 -30 c7 -17 13 -36 14 -42z"/>
<path d="M9170 1565 l0 -85 41 0 c24 0 38 4 34 10 -3 6 -17 10 -31 10 -23 0
-24 2 -24 75 0 43 -4 75 -10 75 -6 0 -10 -35 -10 -85z"/>
<path d="M9310 1565 l0 -85 50 0 c28 0 50 5 50 10 0 6 -18 10 -40 10 -38 0
-40 2 -40 29 0 28 3 30 43 34 l42 4 -43 1 c-42 2 -43 3 -40 35 3 29 7 33 43
38 39 6 39 6 -12 8 l-53 1 0 -85z"/>
<path d="M9475 1625 c-72 -71 21 -187 103 -129 12 8 22 20 22 26 0 7 -7 5 -17
-4 -28 -23 -51 -28 -77 -16 -55 24 -54 102 1 127 21 10 31 8 60 -9 43 -25 54
-20 17 9 -36 28 -79 27 -109 -4z"/>
<path d="M9690 1650 c0 -3 -16 -43 -35 -88 -19 -45 -31 -82 -26 -82 4 0 13 11
19 25 9 20 19 25 47 25 28 0 38 -5 47 -25 6 -14 15 -25 19 -25 4 0 -5 31 -21
70 -28 68 -49 110 -50 100z m30 -97 c0 -7 -11 -13 -25 -13 -28 0 -30 4 -13 51
l12 34 12 -30 c7 -17 13 -36 14 -42z"/>
<path d="M9790 1565 c0 -50 4 -85 10 -85 6 0 10 16 10 35 0 19 4 35 9 35 5 0
21 -16 35 -35 15 -19 32 -35 37 -35 6 0 -2 15 -16 34 -26 34 -26 34 -6 41 12
3 24 17 27 31 9 36 -20 64 -68 64 l-38 0 0 -85z m87 49 c9 -24 -10 -49 -41
-52 -24 -3 -26 0 -26 32 0 33 2 36 30 36 19 0 33 -6 37 -16z"/>
<path d="M9930 1641 c23 -6 25 -12 31 -86 l5 -80 2 82 c2 76 4 82 25 86 12 2
-3 4 -33 5 -37 0 -47 -2 -30 -7z"/>
<path d="M2776 1488 c-10 -38 -6 -45 9 -18 17 29 18 40 6 40 -5 0 -11 -10 -15
-22z"/>
<path d="M8166 1488 c-10 -38 -6 -45 9 -18 17 29 18 40 6 40 -5 0 -11 -10 -15
-22z"/>
<path d="M7070 1425 c-7 -9 -8 -15 -2 -15 5 0 12 7 16 15 3 8 4 15 2 15 -2 0
-9 -7 -16 -15z"/>
<path d="M7347 1433 c-4 -3 -7 -11 -7 -17 0 -6 5 -5 12 2 6 6 9 14 7 17 -3 3
-9 2 -12 -2z"/>
<path d="M1170 1305 l0 -85 39 0 c61 0 94 48 56 80 -11 9 -13 16 -5 24 30 30
-2 66 -59 66 l-31 0 0 -85z m78 43 c-2 -17 -11 -24 -30 -26 -24 -3 -28 0 -28
22 0 22 4 26 31 26 26 0 30 -3 27 -22z m12 -63 c18 -21 -4 -45 -41 -45 -26 0
-29 4 -29 30 0 26 3 30 29 30 16 0 34 -7 41 -15z"/>
<path d="M1360 1390 c0 -3 -16 -43 -35 -88 -19 -45 -31 -82 -26 -82 4 0 13 11
19 25 9 20 19 25 47 25 28 0 38 -5 47 -25 6 -14 15 -25 19 -25 4 0 -5 31 -21
70 -28 68 -49 110 -50 100z m30 -97 c0 -7 -11 -13 -25 -13 -28 0 -30 4 -13 51
l12 34 12 -30 c7 -17 13 -36 14 -42z"/>
<path d="M1460 1305 l0 -85 39 0 c61 0 94 48 56 80 -11 9 -13 16 -5 24 30 30
-2 66 -59 66 l-31 0 0 -85z m78 43 c-2 -17 -11 -24 -30 -26 -24 -3 -28 0 -28
22 0 22 4 26 31 26 26 0 30 -3 27 -22z m12 -63 c18 -21 -4 -45 -41 -45 -26 0
-29 4 -29 30 0 26 3 30 29 30 16 0 34 -7 41 -15z"/>
<path d="M1604 1305 c0 -49 1 -71 3 -48 2 23 2 64 0 90 -2 26 -3 8 -3 -42z"/>
<path d="M1650 1305 l0 -85 50 0 c28 0 50 5 50 10 0 6 -18 10 -40 10 -38 0
-40 2 -40 29 0 28 3 30 43 34 l42 4 -42 1 c-42 2 -43 3 -43 36 0 34 1 35 43
39 40 3 40 4 -10 5 l-53 2 0 -85z"/>
<path d="M1800 1376 c-23 -29 -8 -59 39 -76 48 -16 60 -32 41 -55 -16 -20 -49
-19 -72 2 -23 21 -35 11 -13 -11 24 -24 81 -21 99 6 20 28 3 57 -42 72 -48 17
-60 33 -39 53 14 15 22 15 47 6 17 -6 30 -8 30 -3 0 22 -72 27 -90 6z"/>
<path d="M2022 1309 c-18 -45 -30 -84 -28 -87 3 -2 11 7 17 22 10 21 19 26 50
26 33 0 40 -4 45 -25 3 -14 11 -25 16 -25 11 0 10 2 -30 102 -15 37 -29 68
-32 68 -3 0 -20 -37 -38 -81z m57 10 c6 -18 11 -34 11 -35 0 -2 -13 -4 -30 -4
-16 0 -30 2 -30 4 0 14 24 66 30 66 4 0 13 -14 19 -31z"/>
<path d="M2162 1304 c1 -89 1 -89 7 -24 l6 65 44 -62 c24 -35 45 -63 47 -63 2
0 4 38 4 85 0 50 -4 85 -10 85 -6 0 -10 -27 -10 -62 l0 -62 -45 64 -45 64 2
-90z"/>
<path d="M2310 1305 l0 -85 34 0 c22 0 45 9 62 24 60 51 20 146 -62 146 l-34
0 0 -85z m92 48 c44 -40 10 -113 -54 -113 -28 0 -28 1 -28 65 l0 65 32 0 c17
0 40 -7 50 -17z"/>
<path d="M2560 1370 c-27 -27 -35 -65 -20 -101 14 -34 37 -49 73 -49 25 0 82
38 73 48 -3 3 -15 -3 -26 -13 -10 -9 -31 -17 -45 -17 -63 0 -89 82 -38 121 28
23 54 21 86 -7 9 -8 20 -13 23 -10 10 11 -49 48 -77 48 -16 0 -38 -9 -49 -20z"/>
<path d="M2720 1305 c0 -50 4 -85 10 -85 6 0 10 18 10 40 0 39 1 40 35 40 34
0 35 -1 35 -40 0 -22 5 -40 10 -40 6 0 10 35 10 85 0 50 -4 85 -10 85 -5 0
-10 -18 -10 -40 0 -39 -1 -40 -35 -40 -34 0 -35 1 -35 40 0 22 -4 40 -10 40
-6 0 -10 -35 -10 -85z"/>
<path d="M2870 1305 c0 -50 4 -85 10 -85 6 0 10 35 10 85 0 50 -4 85 -10 85
-6 0 -10 -35 -10 -85z"/>
<path d="M2920 1305 l0 -85 40 0 c22 0 40 5 40 10 0 6 -13 10 -30 10 l-30 0 0
75 c0 43 -4 75 -10 75 -6 0 -10 -35 -10 -85z"/>
<path d="M3030 1305 l0 -85 34 0 c22 0 45 9 62 24 60 51 20 146 -62 146 l-34
0 0 -85z m92 48 c44 -40 10 -113 -54 -113 -28 0 -28 1 -28 65 l0 65 32 0 c17
0 40 -7 50 -17z"/>
<path d="M3190 1305 c0 -50 4 -85 10 -85 6 0 10 16 10 35 0 44 11 44 41 0 13
-19 30 -35 37 -35 9 0 5 11 -12 30 l-25 30 25 25 c13 13 24 29 24 35 0 23 -41
50 -75 50 l-35 0 0 -85z m87 49 c9 -24 -10 -49 -41 -52 -24 -3 -26 0 -26 32 0
33 2 36 30 36 19 0 33 -6 37 -16z"/>
<path d="M3330 1305 l0 -85 51 0 c31 0 48 4 44 10 -3 6 -24 10 -46 10 -37 0
-39 2 -39 29 0 28 3 30 43 34 l42 4 -43 1 c-42 2 -43 3 -40 35 3 30 6 32 48
38 l45 6 -52 1 -53 2 0 -85z"/>
<path d="M3460 1306 c0 -98 18 -118 22 -24 l3 61 43 -61 c24 -34 45 -62 48
-62 2 0 4 38 4 85 0 98 -18 116 -22 23 l-3 -63 -33 52 c-57 89 -62 88 -62 -11z"/>
<path d="M6370 1305 l0 -85 34 0 c22 0 45 9 62 24 60 51 20 146 -62 146 l-34
0 0 -85z m92 48 c44 -40 10 -113 -54 -113 -28 0 -28 1 -28 65 l0 65 32 0 c17
0 40 -7 50 -17z"/>
<path d="M6530 1305 l0 -85 50 0 c28 0 50 5 50 10 0 6 -18 10 -40 10 -38 0
-40 2 -40 29 0 28 3 30 43 34 l42 4 -42 1 c-42 2 -43 3 -43 36 0 34 1 35 43
39 40 3 40 4 -10 5 l-53 2 0 -85z"/>
<path d="M6676 1374 c-32 -31 -8 -63 57 -78 35 -8 46 -34 22 -52 -25 -19 -50
-18 -70 2 -9 9 -19 13 -23 9 -12 -11 30 -35 63 -35 37 0 55 16 55 48 0 18 -10
27 -50 44 -34 14 -50 26 -50 39 0 24 44 36 65 19 9 -7 19 -10 22 -6 11 10 -18
26 -49 26 -15 0 -34 -7 -42 -16z"/>
<path d="M6880 1305 l0 -85 38 0 c59 0 94 49 57 80 -11 9 -12 17 -5 30 13 24
13 26 -6 44 -8 9 -31 16 -50 16 l-34 0 0 -85z m75 40 c0 -14 -8 -21 -27 -23
-24 -3 -28 0 -28 23 0 23 4 26 28 23 19 -2 27 -9 27 -23z m10 -75 c0 -21 -5
-26 -32 -28 -31 -3 -33 -1 -33 28 0 29 2 31 33 28 27 -2 32 -7 32 -28z"/>
<path d="M7010 1305 l0 -85 50 0 c28 0 50 5 50 10 0 6 -18 10 -40 10 -38 0
-40 2 -40 29 0 28 3 30 43 34 l42 4 -43 1 c-42 2 -43 3 -40 35 3 29 7 33 43
38 39 6 39 6 -12 8 l-53 1 0 -85z"/>
<path d="M7150 1305 l0 -85 39 0 c61 0 94 48 56 80 -11 9 -13 16 -5 24 30 30
-2 66 -59 66 l-31 0 0 -85z m78 43 c-2 -17 -11 -24 -30 -26 -24 -3 -28 0 -28
22 0 22 4 26 31 26 26 0 30 -3 27 -22z m12 -63 c18 -21 -4 -45 -41 -45 -26 0
-29 4 -29 30 0 26 3 30 29 30 16 0 34 -7 41 -15z"/>
<path d="M7290 1305 l0 -85 51 0 c31 0 48 4 44 10 -3 6 -24 10 -46 10 -37 0
-39 2 -39 29 0 28 3 30 43 34 l42 4 -43 1 c-42 2 -43 3 -40 35 3 30 6 32 48
38 l45 6 -52 1 -53 2 0 -85z"/>
<path d="M7436 1374 c-32 -31 -8 -63 57 -78 35 -8 46 -34 22 -52 -25 -19 -50
-18 -70 2 -9 9 -19 13 -23 9 -12 -11 30 -35 63 -35 37 0 55 16 55 48 0 18 -10
27 -50 44 -34 14 -50 26 -50 39 0 24 44 36 65 19 9 -7 19 -10 22 -6 11 10 -18
26 -49 26 -15 0 -34 -7 -42 -16z"/>
<path d="M7640 1305 l0 -85 50 0 c28 0 50 5 50 10 0 6 -18 10 -40 10 -38 0
-40 2 -40 29 0 28 3 30 43 34 l42 4 -42 1 c-42 2 -43 3 -43 36 0 34 1 35 43
39 40 3 40 4 -10 5 l-53 2 0 -85z"/>
<path d="M7780 1381 c23 -6 25 -12 31 -86 l5 -80 2 82 c2 76 4 82 25 86 12 2
-3 4 -33 5 -37 0 -47 -2 -30 -7z"/>
<path d="M7950 1305 l0 -88 47 6 c56 6 83 33 83 82 0 49 -27 76 -83 82 l-47 6
0 -88z m100 45 c41 -41 10 -110 -50 -110 l-30 0 0 65 0 65 30 0 c17 0 39 -9
50 -20z"/>
<path d="M8120 1305 l0 -85 51 0 c31 0 48 4 44 10 -3 6 -24 10 -46 10 -37 0
-39 2 -39 29 0 28 3 30 43 34 l42 4 -43 1 c-42 2 -43 3 -40 35 3 30 6 32 48
38 l45 6 -52 1 -53 2 0 -85z"/>
<path d="M8266 1374 c-32 -31 -8 -63 57 -78 35 -8 46 -34 22 -52 -25 -19 -50
-18 -70 2 -9 9 -19 13 -23 9 -12 -11 30 -35 63 -35 37 0 55 16 55 48 0 18 -10
27 -50 44 -34 14 -50 26 -50 39 0 24 44 36 65 19 9 -7 19 -10 22 -6 11 10 -18
26 -49 26 -15 0 -34 -7 -42 -16z"/>
<path d="M8470 1305 l0 -85 51 0 c31 0 48 4 44 10 -3 6 -24 10 -46 10 -37 0
-39 2 -39 29 0 28 3 30 43 34 l42 4 -43 1 c-42 2 -43 3 -40 35 3 30 6 32 48
38 l45 6 -52 1 -53 2 0 -85z"/>
<path d="M8612 1304 c1 -89 1 -89 7 -24 l6 65 44 -62 c24 -35 45 -63 47 -63 2
0 4 38 4 85 0 50 -4 85 -10 85 -6 0 -10 -27 -10 -62 l0 -62 -45 64 -45 64 2
-90z"/>
<path d="M8762 1303 c1 -49 3 -69 5 -46 4 41 5 42 46 46 l42 4 -43 1 c-42 2
-43 3 -40 35 3 30 6 32 48 38 l45 6 -52 1 -53 2 2 -87z"/>
<path d="M8902 1309 c-18 -45 -30 -84 -28 -87 3 -2 11 7 17 22 10 21 19 26 50
26 33 0 40 -4 45 -25 3 -14 11 -25 16 -25 11 0 10 2 -30 102 -15 37 -29 68
-32 68 -3 0 -20 -37 -38 -81z m57 10 c6 -18 11 -34 11 -35 0 -2 -13 -4 -30 -4
-16 0 -30 2 -30 4 0 14 24 66 30 66 4 0 13 -14 19 -31z"/>
<path d="M9042 1304 c1 -89 1 -89 7 -24 l6 65 44 -62 c24 -35 45 -63 47 -63 2
0 4 38 4 85 0 50 -4 85 -10 85 -6 0 -10 -27 -10 -62 l0 -62 -45 64 -45 64 2
-90z"/>
<path d="M9198 1380 c20 -9 22 -17 24 -87 l2 -78 5 79 c5 67 9 80 26 87 14 5
4 8 -30 8 -40 0 -45 -2 -27 -9z"/>
<path d="M9310 1376 c-23 -29 -8 -59 39 -76 48 -16 60 -32 41 -55 -16 -20 -49
-19 -72 2 -23 21 -35 11 -13 -11 24 -24 81 -21 99 6 20 28 3 57 -42 72 -48 17
-60 33 -39 53 14 15 22 15 47 6 17 -6 30 -8 30 -3 0 22 -72 27 -90 6z"/>
<path d="M3620 1230 c0 -5 5 -10 10 -10 6 0 10 5 10 10 0 6 -4 10 -10 10 -5 0
-10 -4 -10 -10z"/>
<path d="M9445 1230 c3 -5 10 -10 16 -10 5 0 9 5 9 10 0 6 -7 10 -16 10 -8 0
-12 -4 -9 -10z"/>
</g>
</svg>
